HIERARCHY
ROOT Hips
{
	OFFSET 0.000000 0.000000 0.000000 
	CHANNELS 6 Xposition Yposition Zposition Zrotation Yrotation Xrotation
	JOINT LeftUpLeg
	{
		OFFSET 1.363060 -1.794630 0.839290 
		CHANNELS 3 Zrotation Yrotation Xrotation
		JOINT LeftLeg
		{
			OFFSET 2.448110 -6.726130 0.000000 
			CHANNELS 3 Zrotation Yrotation Xrotation
			JOINT LeftFoot
			{
				OFFSET 2.562200 -7.039590 0.000000 
				CHANNELS 3 Zrotation Yrotation Xrotation
				JOINT LeftToeBase
				{
					OFFSET 0.157640 -0.433110 2.322550 
					CHANNELS 3 Zrotation Yrotation Xrotation
					End Site
					{
						OFFSET 0.000000 0.000000 0.000000 
					}
				}
			}
		}
	}
	JOINT RightUpLeg
	{
		OFFSET -1.305520 -1.794630 0.839290 
		CHANNELS 3 Zrotation Yrotation Xrotation
		JOINT RightLeg
		{
			OFFSET -2.542530 -6.985550 0.000000 
			CHANNELS 3 Zrotation Yrotation Xrotation
			JOINT RightFoot
			{
				OFFSET -2.568260 -7.056230 0.000000 
				CHANNELS 3 Zrotation Yrotation Xrotation
				JOINT RightToeBase
				{
					OFFSET -0.164730 -0.452590 2.363150 
					CHANNELS 3 Zrotation Yrotation Xrotation
					End Site
					{
						OFFSET 0.000000 0.000000 0.000000 
					}
				}
			}
		}
	}
	JOINT Spine
	{
		OFFSET 0.028270 2.035590 -0.193380 
		CHANNELS 3 Zrotation Yrotation Xrotation
		JOINT Spine1
		{
			OFFSET 0.056720 2.048850 -0.042750 
			CHANNELS 3 Zrotation Yrotation Xrotation
			JOINT Neck1
			{
				OFFSET -0.054170 1.746240 0.172020 
				CHANNELS 3 Zrotation Yrotation Xrotation
				JOINT Head
				{
					OFFSET 0.104070 1.761360 -0.123970 
					CHANNELS 3 Zrotation Yrotation Xrotation
					End Site
					{
						OFFSET 0.000000 0.000000 0.000000 
					}
				}
			}
			JOINT LeftArm
			{
				OFFSET 3.362410 1.200890 -0.311210 
				CHANNELS 3 Zrotation Yrotation Xrotation
				JOINT LeftForeArm
				{
					OFFSET 4.983000 -0.000000 -0.000000 
					CHANNELS 3 Zrotation Yrotation Xrotation
					JOINT LeftHand
					{
						OFFSET 3.483560 -0.000000 -0.000000 
						CHANNELS 3 Zrotation Yrotation Xrotation
						JOINT LeftHandIndex1
						{
							OFFSET 0.715260 -0.000000 -0.000000 
							CHANNELS 3 Zrotation Yrotation Xrotation
							End Site
							{
								OFFSET 0.000000 0.000000 0.000000 
							}
						}
					}
				}
			}
			JOINT RightArm
			{
				OFFSET -3.136600 1.374050 -0.404650 
				CHANNELS 3 Zrotation Yrotation Xrotation
				JOINT RightForeArm
				{
					OFFSET -5.241900 -0.000000 -0.000000 
					CHANNELS 3 Zrotation Yrotation Xrotation
					JOINT RightHand
					{
						OFFSET -3.444170 -0.000000 -0.000000 
						CHANNELS 3 Zrotation Yrotation Xrotation
						JOINT RightHandIndex1
						{
							OFFSET -0.622530 -0.000000 -0.000000 
							CHANNELS 3 Zrotation Yrotation Xrotation
							End Site
							{
								OFFSET 0.000000 0.000000 0.000000 
							}
						}
					}
				}
			}
		}
	}
}
MOTION
Frames: 10
Frame Time: 0.041667
-0.236264 17.405988 -16.197032 177.448450 0.765778 -153.813512 -32.174335 -4.991106 -41.593388 0.879534 13.373013 34.155288 -3.209525 15.227032 -22.129998 0.116200 2.197600 6.052000 27.976904 -6.630782 -30.050618 -10.670932 -17.966783 53.055324 6.597668 -44.258924 30.011204 -2.427200 -9.704200 28.024200 0.534697 0.743174 -6.507099 0.104594 -0.260292 0.968887 5.890399 -3.938954 17.794172 -0.085800 -2.741500 14.410700 -77.518411 16.329470 -1.137701 13.121420 -20.288050 -3.370143 -3.287664 0.603866 0.886318 -7.125000 0.000000 0.000000 75.293011 -13.584560 17.364370 -7.763047 11.674801 -1.214587 0.118669 1.899603 2.402683 7.125000 0.000000 0.000000 
-0.248846 17.398246 -16.192837 177.478477 0.476044 -153.843358 -32.211107 -4.969683 -41.616315 0.921907 13.425748 34.314417 -3.145256 15.031108 -22.025594 0.106800 2.107300 5.802200 28.082163 -7.259583 -29.984107 -10.611027 -17.895575 52.916778 6.783360 -44.077315 29.414247 -2.572400 -9.968300 28.874200 0.522059 0.702540 -6.511727 -0.170275 -0.291139 0.920506 5.829019 -3.939889 17.761600 -0.130300 -2.736100 14.358200 -77.427375 16.306344 -1.159871 13.067313 -20.194728 -3.349157 -3.285228 0.618889 0.977950 -7.125000 0.000000 0.000000 75.347044 -13.483935 16.602423 -7.538280 11.447000 -1.188452 0.175731 1.897127 3.185665 7.125000 0.000000 0.000000 
-0.246157 17.401902 -16.211334 177.677249 0.483691 -153.803570 -31.992930 -4.880075 -41.727296 0.963577 13.480647 34.482795 -3.144543 15.051805 -22.087876 0.089700 1.931300 5.315900 28.282613 -7.180092 -29.904012 -10.563902 -17.876468 52.755033 6.586330 -43.926763 29.862367 -2.442900 -9.733400 28.117700 0.525738 0.778880 -6.530920 -0.203797 -0.265225 0.867622 5.815056 -3.977990 17.789638 -0.127100 -2.772000 14.327500 -77.382951 16.463947 -1.005238 13.032965 -20.155246 -3.335051 -3.277560 0.630098 1.021976 -7.125000 0.000000 0.000000 75.328439 -13.672010 16.717944 -7.479280 11.390834 -1.180493 0.180958 1.897496 3.064965 7.125000 0.000000 0.000000 
-0.274763 17.411580 -16.190041 178.477237 -0.340604 -154.062161 -30.988874 -5.094113 -41.428921 1.000970 13.515424 34.595503 -3.171132 15.086398 -22.008577 0.084800 1.877900 5.168200 29.317764 -8.035172 -29.870609 -10.539858 -17.843032 52.596677 5.781762 -43.177537 31.564625 -2.103000 -9.077400 26.037700 0.572286 0.675696 -6.584810 -0.841403 -0.331626 0.401837 5.686042 -3.978771 17.755087 -0.204200 -2.785300 14.279000 -77.374844 16.452217 -1.196514 12.877071 -19.862737 -3.272651 -3.278472 0.640322 1.361227 -7.125000 0.000000 0.000000 75.262100 -13.963302 17.288231 -7.493672 11.464040 -1.189498 0.157790 1.911564 2.416928 7.125000 0.000000 0.000000 
-0.265407 17.408462 -16.186493 178.129618 -0.076311 -154.025193 -31.368856 -5.120719 -41.573219 1.018646 13.550179 34.696954 -3.047174 14.828457 -22.170073 0.104600 2.085900 5.743100 28.895573 -7.828279 -29.858560 -10.528142 -17.830992 52.550381 5.899265 -43.252253 31.313264 -2.118500 -9.108600 26.135600 0.546917 0.695388 -6.656703 -0.648909 -0.335491 -0.002651 5.720849 -3.975653 17.876309 -0.189800 -2.832600 14.235400 -77.377260 16.846186 -1.191606 12.833969 -19.820490 -3.271827 -3.290487 0.661351 1.364761 -7.125000 0.000000 0.000000 75.316300 -14.465412 17.634528 -7.515349 11.461981 -1.191061 0.139147 1.917984 2.162854 7.125000 0.000000 0.000000 
-0.270999 17.410290 -16.185740 178.191875 -0.112069 -154.059059 -31.277523 -5.166403 -41.517795 1.037340 13.581174 34.788025 -2.885515 14.445838 -22.281065 0.130000 2.324300 6.402700 28.932519 -8.025517 -29.794030 -10.508281 -17.811825 52.443301 5.510452 -42.801918 32.097091 -1.900800 -8.656300 24.726000 0.547855 0.707923 -6.588690 -0.679458 -0.313625 0.461421 5.923490 -3.891133 18.029771 0.026100 -2.797500 14.625700 -77.330105 16.344865 -1.091589 12.944216 -19.958999 -3.311916 -3.294723 0.694111 1.148284 -7.125000 0.000000 0.000000 75.192079 -13.847659 17.358884 -7.351140 11.300292 -1.167700 0.173157 1.909348 2.454603 7.125000 0.000000 0.000000 
-0.278419 17.411473 -16.185632 178.352083 -0.232024 -154.078579 -31.147866 -5.099784 -41.493728 1.035446 13.567807 34.757579 -2.955759 14.579881 -22.149260 0.122900 2.260400 6.225800 29.128660 -8.246405 -29.836038 -10.509535 -17.810763 52.376938 4.800542 -42.099858 33.576637 -1.560100 -7.882300 22.357300 0.567423 0.644118 -6.656443 -0.746497 -0.368625 0.072035 6.025957 -3.789593 18.114080 0.148700 -2.832500 14.499400 -77.536857 17.016776 -0.805992 13.166100 -20.219887 -3.381674 -3.300100 0.688471 0.698801 -7.125000 0.000000 0.000000 75.133732 -14.340829 17.460995 -7.294987 11.255066 -1.167795 0.193755 1.918340 2.626779 7.125000 0.000000 0.000000 
-0.276699 17.410828 -16.183159 178.298152 -0.190845 -154.047861 -31.227284 -5.081563 -41.529058 1.037075 13.574768 34.769693 -2.974752 14.634687 -22.157878 0.113900 2.175900 5.992000 29.076391 -8.255941 -29.839239 -10.494416 -17.806215 52.300736 4.550782 -41.886000 34.116502 -1.437600 -7.580400 21.446700 0.570855 0.728493 -6.572041 -0.602891 -0.294952 0.576700 6.029911 -3.777190 18.072601 0.216100 -2.813700 14.658000 -77.545766 16.327029 -0.964279 13.022193 -20.060984 -3.336710 -3.304330 0.694844 0.953541 -7.125000 0.000000 0.000000 74.938911 -13.764093 16.720078 -7.129488 11.082264 -1.157470 0.211213 1.933822 3.186394 7.125000 0.000000 0.000000 
-0.275838 17.413086 -16.180148 178.160203 -0.086553 -154.014876 -31.406621 -5.057149 -41.565919 1.027705 13.565761 34.739186 -2.962537 14.605979 -22.164937 0.115900 2.195200 6.045400 28.883544 -8.224788 -29.880749 -10.498969 -17.808896 52.286049 4.369395 -41.704044 34.496975 -1.373700 -7.417100 20.957100 0.560600 0.770586 -6.557440 -0.524402 -0.268103 0.690415 6.028343 -3.800308 18.123952 0.230100 -2.827000 14.779800 -77.583178 16.123128 -1.110962 12.983733 -20.011101 -3.320069 -3.297983 0.694207 1.107681 -7.125000 0.000000 0.000000 74.879274 -13.630855 16.532994 -7.097135 11.041806 -1.154251 0.207274 1.936876 3.320725 7.125000 0.000000 0.000000 
-0.274333 17.405451 -16.173588 178.119034 -0.055865 -153.968573 -31.484851 -5.000001 -41.679597 1.026809 13.563280 34.720981 -3.064690 14.828352 -22.031069 0.091200 1.948000 5.362000 28.838228 -8.183246 -29.870740 -10.485023 -17.797027 52.263664 4.640166 -41.945260 33.927435 -1.536500 -7.825400 22.185100 0.562261 0.767691 -6.579007 -0.468613 -0.273748 0.593009 6.053816 -3.812212 18.185045 0.258000 -2.854100 14.809200 -77.631144 16.196673 -1.227012 12.934575 -19.941883 -3.297705 -3.291198 0.676375 1.278983 -7.125000 0.000000 0.000000 74.833308 -13.735554 16.601470 -7.109914 11.050603 -1.154804 0.204206 1.935716 3.284069 7.125000 0.000000 0.000000 
